name ./resultDataOpenSim/trcMotMarkerGrf/sub06/grf-13-04.mot
datacolumns 19
datarows 22
range 0.53200000 0.61600000
endheader

                time	     ground_force_vx	     ground_force_vy	     ground_force_vz	     ground_force_px	     ground_force_py	     ground_force_pz	   l_ground_force_vx	   l_ground_force_vy	   l_ground_force_vz	   l_ground_force_px	   l_ground_force_py	   l_ground_force_pz	     ground_torque_x	     ground_torque_y	     ground_torque_z	   l_ground_torque_x	   l_ground_torque_y	   l_ground_torque_z	
          0.53200000	         40.75770258	        379.22949258	        -16.41292378	         -0.73491854	          0.00000000	          0.06148923	          0.00000000	          0.00000000	          0.00000000	          0.00000000	          0.00000000	          0.00000000	          0.00000000	          0.88080690	          0.00000000	          0.00000000	          0.00000000	          0.00000000	
          0.53600000	         44.24307186	        390.37776704	        -17.14754386	         -0.73472952	          0.00000000	          0.06130791	          0.00000000	          0.00000000	          0.00000000	          0.00000000	          0.00000000	          0.00000000	          0.00000000	          0.93046045	          0.00000000	          0.00000000	          0.00000000	          0.00000000	
          0.54000000	         46.87136083	        402.26511097	        -18.27839620	         -0.73431039	          0.00000000	          0.06111966	          0.00000000	          0.00000000	          0.00000000	          0.00000000	          0.00000000	          0.00000000	          0.00000000	          0.96831951	          0.00000000	          0.00000000	          0.00000000	          0.00000000	
          0.54400000	         48.67334331	        414.89690251	        -19.77199447	         -0.73368722	          0.00000000	          0.06092462	          0.00000000	          0.00000000	          0.00000000	          0.00000000	          0.00000000	          0.00000000	          0.00000000	          0.99327272	          0.00000000	          0.00000000	          0.00000000	          0.00000000	
          0.54800000	         49.89580237	        428.26993497	        -21.53011031	         -0.73290226	          0.00000000	          0.06071906	          0.00000000	          0.00000000	          0.00000000	          0.00000000	          0.00000000	          0.00000000	          0.00000000	          1.00533628	          0.00000000	          0.00000000	          0.00000000	          0.00000000	
          0.55200000	         50.93671026	        442.38118436	        -23.40419570	         -0.73201484	          0.00000000	          0.06049195	          0.00000000	          0.00000000	          0.00000000	          0.00000000	          0.00000000	          0.00000000	          0.00000000	          1.00677164	          0.00000000	          0.00000000	          0.00000000	          0.00000000	
          0.55600000	         52.24605992	        457.24458746	        -25.21529910	         -0.73110257	          0.00000000	          0.06022517	          0.00000000	          0.00000000	          0.00000000	          0.00000000	          0.00000000	          0.00000000	          0.00000000	          1.00305653	          0.00000000	          0.00000000	          0.00000000	          0.00000000	
          0.56000000	         54.20426893	        472.90186590	        -26.77813599	         -0.73024467	          0.00000000	          0.05989481	          0.00000000	          0.00000000	          0.00000000	          0.00000000	          0.00000000	          0.00000000	          0.00000000	          1.00305927	          0.00000000	          0.00000000	          0.00000000	          0.00000000	
          0.56400000	         57.01450483	        489.40415416	        -27.93537184	         -0.72950840	          0.00000000	          0.05947141	          0.00000000	          0.00000000	          0.00000000	          0.00000000	          0.00000000	          0.00000000	          0.00000000	          1.01801520	          0.00000000	          0.00000000	          0.00000000	          0.00000000	
          0.56800000	         60.66809273	        506.73316868	        -28.59021496	         -0.72893672	          0.00000000	          0.05893387	          0.00000000	          0.00000000	          0.00000000	          0.00000000	          0.00000000	          0.00000000	          0.00000000	          1.05937909	          0.00000000	          0.00000000	          0.00000000	          0.00000000	
          0.57200000	         64.99377953	        524.69595312	        -28.70789824	         -0.72850642	          0.00000000	          0.05829510	          0.00000000	          0.00000000	          0.00000000	          0.00000000	          0.00000000	          0.00000000	          0.00000000	          1.13615045	          0.00000000	          0.00000000	          0.00000000	          0.00000000	
          0.57600000	         69.72841141	        542.93180497	        -28.29914098	         -0.72808454	          0.00000000	          0.05760275	          0.00000000	          0.00000000	          0.00000000	          0.00000000	          0.00000000	          0.00000000	          0.00000000	          1.25254223	          0.00000000	          0.00000000	          0.00000000	          0.00000000	
          0.58000000	         74.59203264	        561.10378721	        -27.42514657	         -0.72750601	          0.00000000	          0.05690399	          0.00000000	          0.00000000	          0.00000000	          0.00000000	          0.00000000	          0.00000000	          0.00000000	          1.40668965	          0.00000000	          0.00000000	          0.00000000	          0.00000000	
          0.58400000	         79.39632182	        579.10222907	        -26.21042476	         -0.72673783	          0.00000000	          0.05620899	          0.00000000	          0.00000000	          0.00000000	          0.00000000	          0.00000000	          0.00000000	          0.00000000	          1.59063904	          0.00000000	          0.00000000	          0.00000000	          0.00000000	
          0.58800000	         84.12062724	        597.01602097	        -24.82272641	         -0.72592358	          0.00000000	          0.05549689	          0.00000000	          0.00000000	          0.00000000	          0.00000000	          0.00000000	          0.00000000	          0.00000000	          1.79151028	          0.00000000	          0.00000000	          0.00000000	          0.00000000	
          0.59200000	         88.86641340	        614.88252253	        -23.42814716	         -0.72521541	          0.00000000	          0.05475750	          0.00000000	          0.00000000	          0.00000000	          0.00000000	          0.00000000	          0.00000000	          0.00000000	          1.99364944	          0.00000000	          0.00000000	          0.00000000	          0.00000000	
          0.59600000	         93.75399864	        632.48212341	        -22.15992090	         -0.72461405	          0.00000000	          0.05401732	          0.00000000	          0.00000000	          0.00000000	          0.00000000	          0.00000000	          0.00000000	          0.00000000	          2.18151161	          0.00000000	          0.00000000	          0.00000000	          0.00000000	
          0.60000000	         98.88841895	        649.40507122	        -21.11379684	         -0.72399076	          0.00000000	          0.05332151	          0.00000000	          0.00000000	          0.00000000	          0.00000000	          0.00000000	          0.00000000	          0.00000000	          2.34269987	          0.00000000	          0.00000000	          0.00000000	          0.00000000	
          0.60400000	        104.37652462	        665.33509046	        -20.34792939	         -0.72325529	          0.00000000	          0.05270218	          0.00000000	          0.00000000	          0.00000000	          0.00000000	          0.00000000	          0.00000000	          0.00000000	          2.47028184	          0.00000000	          0.00000000	          0.00000000	          0.00000000	
          0.60800000	        110.30505785	        680.24359830	        -19.86495284	         -0.72249158	          0.00000000	          0.05214110	          0.00000000	          0.00000000	          0.00000000	          0.00000000	          0.00000000	          0.00000000	          0.00000000	          2.56360919	          0.00000000	          0.00000000	          0.00000000	          0.00000000	
          0.61200000	        116.68855805	        694.27505078	        -19.60770973	         -0.72182166	          0.00000000	          0.05160536	          0.00000000	          0.00000000	          0.00000000	          0.00000000	          0.00000000	          0.00000000	          0.00000000	          2.62741947	          0.00000000	          0.00000000	          0.00000000	          0.00000000	
          0.61600000	        123.44798210	        707.48205085	        -19.49808810	         -0.72126659	          0.00000000	          0.05108321	          0.00000000	          0.00000000	          0.00000000	          0.00000000	          0.00000000	          0.00000000	          0.00000000	          2.66966908	          0.00000000	          0.00000000	          0.00000000	          0.00000000	
